<svg xmlns="http://www.w3.org/2000/svg" xmlns:xlink="http://www.w3.org/1999/xlink" width="500" zoomAndPan="magnify" viewBox="0 0 375 374.999991" height="500" preserveAspectRatio="xMidYMid meet" version="1.0"><defs><g/><clipPath id="0cbf7ea2e8"><path d="M 63.089844 20.511719 L 261 20.511719 L 261 200 L 63.089844 200 Z M 63.089844 20.511719 " clip-rule="nonzero"/></clipPath><clipPath id="59a30bf9a5"><path d="M 127 75 L 312.089844 75 L 312.089844 269.511719 L 127 269.511719 Z M 127 75 " clip-rule="nonzero"/></clipPath></defs><path fill="#0cc0df" d="M 234.917969 110.953125 C 237.421875 108.453125 237.910156 104.683594 236.386719 101.691406 C 236.011719 100.960938 235.523438 100.285156 234.917969 99.679688 C 231.796875 96.558594 226.75 96.558594 223.644531 99.679688 C 220.523438 102.800781 220.523438 107.847656 223.644531 110.953125 C 224.277344 111.585938 224.996094 112.105469 225.773438 112.480469 C 228.75 113.945312 232.460938 113.441406 234.933594 110.953125 Z M 208.800781 152.171875 C 232.503906 132.570312 253.355469 103.21875 271.359375 64.144531 C 260.15625 76.570312 249.714844 87.84375 240.023438 97.941406 C 243.519531 103.015625 243.015625 110.019531 238.5 114.535156 C 234.027344 119.007812 227.109375 119.554688 222.046875 116.160156 C 213.042969 125.019531 204.832031 132.628906 197.441406 138.984375 C 192.910156 149.65625 196.691406 154.054688 208.816406 152.171875 Z M 282.738281 51.863281 C 277.847656 92.300781 255.929688 129.980469 217 164.914062 C 224.046875 162.167969 229.65625 158.671875 233.824219 154.445312 C 228 188.886719 209.507812 208.445312 178.328125 213.136719 C 184.152344 205.152344 185.75 197.328125 183.101562 189.707031 C 177.867188 194.453125 171.796875 197.949219 164.910156 200.175781 C 166.519531 194.625 166.144531 189.550781 163.773438 184.933594 C 162.480469 188.558594 159.917969 191.21875 156.109375 192.898438 C 154.785156 189.277344 152.945312 186.3125 150.585938 184.011719 C 148.300781 181.652344 145.335938 179.8125 141.699219 178.488281 C 143.378906 174.679688 146.042969 172.121094 149.664062 170.824219 C 145.046875 168.453125 139.972656 168.078125 134.421875 169.6875 C 136.648438 162.785156 140.144531 156.730469 144.890625 151.496094 C 137.253906 148.851562 129.445312 150.445312 121.464844 156.269531 C 126.152344 125.09375 145.710938 106.582031 180.152344 100.773438 C 175.925781 104.945312 172.445312 110.550781 169.683594 117.597656 C 204.617188 78.65625 242.296875 56.75 282.738281 51.863281 Z M 282.738281 51.863281 " fill-opacity="1" fill-rule="evenodd"/><path fill="#d8dfe3" d="M 152.269531 215.550781 L 109.902344 252.640625 L 103.140625 244.917969 L 145.507812 207.828125 Z M 152.269531 215.550781 " fill-opacity="1" fill-rule="nonzero"/><path fill="#d8dfe3" d="M 147.292969 193.101562 L 96.539062 237.511719 L 89.796875 229.789062 L 140.546875 185.378906 Z M 147.292969 193.101562 " fill-opacity="1" fill-rule="nonzero"/><path fill="#d8dfe3" d="M 126.367188 184.34375 L 84 221.433594 L 77.242188 213.710938 L 119.609375 176.636719 Z M 126.367188 184.34375 " fill-opacity="1" fill-rule="nonzero"/><g clip-path="url(#0cbf7ea2e8)"><path fill="#d8dfe3" d="M 93.160156 183.582031 C 88.300781 171.6875 85.609375 158.65625 85.609375 145.011719 C 85.609375 88.691406 131.269531 43.03125 187.589844 43.03125 C 203.882812 43.03125 219.285156 46.855469 232.933594 53.644531 C 241.632812 49.617188 250.695312 46.296875 260.113281 43.808594 C 239.691406 29.140625 214.640625 20.511719 187.589844 20.511719 C 118.832031 20.511719 63.089844 76.253906 63.089844 145.011719 C 63.089844 164.394531 67.519531 182.746094 75.429688 199.097656 Z M 93.160156 183.582031 " fill-opacity="1" fill-rule="evenodd"/></g><g clip-path="url(#59a30bf9a5)"><path fill="#d8dfe3" d="M 187.589844 246.988281 C 172.503906 246.988281 158.195312 243.710938 145.308594 237.84375 L 127.042969 253.820312 C 144.960938 263.816406 165.613281 269.511719 187.574219 269.511719 C 256.332031 269.511719 312.074219 213.769531 312.074219 145.011719 C 312.074219 119.09375 304.152344 95.035156 290.601562 75.101562 C 288.027344 84.695312 284.589844 93.914062 280.421875 102.773438 C 286.289062 115.644531 289.554688 129.9375 289.554688 145.011719 C 289.554688 201.328125 243.890625 246.988281 187.574219 246.988281 Z M 187.589844 246.988281 " fill-opacity="1" fill-rule="evenodd"/></g><g fill="#d8dfe3" fill-opacity="1"><g transform="translate(51.206406, 312.686406)"><g><path d="M 29.730469 -4.246094 L 29.730469 -8.492188 L 25.480469 -8.492188 L 25.480469 -4.246094 Z M 25.480469 -8.492188 L 25.480469 -12.742188 L 4.246094 -12.742188 L 4.246094 -8.492188 Z M 4.246094 -12.742188 L 4.246094 -16.988281 L 0 -16.988281 L 0 -12.742188 Z M 29.730469 -16.988281 L 29.730469 -21.234375 L 4.246094 -21.234375 L 4.246094 -16.988281 Z M 25.480469 0 L 25.480469 -4.246094 L 0 -4.246094 L 0 0 Z M 25.480469 0 "/></g></g></g><g fill="#d8dfe3" fill-opacity="1"><g transform="translate(89.823979, 312.686406)"><g><path d="M 0 0 L 4.246094 0 L 4.246094 -8.492188 L 0 -8.492188 Z M 4.246094 -8.492188 L 25.480469 -8.492188 L 25.480469 -12.742188 L 4.246094 -12.742188 Z M 25.480469 -12.742188 L 29.730469 -12.742188 L 29.730469 -16.988281 L 25.480469 -16.988281 Z M 0 -16.988281 L 25.480469 -16.988281 L 25.480469 -21.234375 L 0 -21.234375 Z M 0 -16.988281 "/></g></g></g><g fill="#d8dfe3" fill-opacity="1"><g transform="translate(128.441552, 312.686406)"><g><path d="M 0 0 L 4.246094 0 L 4.246094 -8.492188 L 0 -8.492188 Z M 25.480469 0 L 29.730469 0 L 29.730469 -8.492188 L 25.480469 -8.492188 Z M 4.246094 -8.492188 L 25.480469 -8.492188 L 25.480469 -12.742188 L 4.246094 -12.742188 Z M 0 -12.742188 L 4.246094 -12.742188 L 4.246094 -16.988281 L 0 -16.988281 Z M 25.480469 -12.742188 L 29.730469 -12.742188 L 29.730469 -16.988281 L 25.480469 -16.988281 Z M 4.246094 -16.988281 L 25.480469 -16.988281 L 25.480469 -21.234375 L 4.246094 -21.234375 Z M 4.246094 -16.988281 "/></g></g></g><g fill="#d8dfe3" fill-opacity="1"><g transform="translate(167.059128, 312.686406)"><g><path d="M 4.246094 -4.246094 L 4.246094 -16.988281 L 0 -16.988281 L 0 -4.246094 Z M 29.730469 -16.988281 L 29.730469 -21.234375 L 4.246094 -21.234375 L 4.246094 -16.988281 Z M 29.730469 -4.246094 L 4.246094 -4.246094 L 4.246094 0 L 29.730469 0 Z M 29.730469 -4.246094 "/></g></g></g><g fill="#d8dfe3" fill-opacity="1"><g transform="translate(205.676698, 312.686406)"><g><path d="M 4.246094 -12.742188 L 4.246094 -16.988281 L 0 -16.988281 L 0 -12.742188 Z M 29.730469 -16.988281 L 29.730469 -21.234375 L 4.246094 -21.234375 L 4.246094 -16.988281 Z M 25.480469 -12.742188 L 4.246094 -12.742188 L 4.246094 -8.492188 L 25.480469 -8.492188 Z M 4.246094 -8.492188 L 0 -8.492188 L 0 -4.246094 L 4.246094 -4.246094 Z M 29.730469 -4.246094 L 4.246094 -4.246094 L 4.246094 0 L 29.730469 0 Z M 29.730469 -4.246094 "/></g></g></g><g fill="#d8dfe3" fill-opacity="1"><g transform="translate(244.294269, 312.686406)"><g><path d="M 4.246094 -21.234375 L 4.246094 -16.988281 L 16.191406 -16.988281 L 16.191406 -21.234375 Z M 0 -16.988281 L 0 0 L 4.246094 0 L 4.246094 -16.988281 Z M 20.4375 -21.234375 L 20.4375 -16.988281 L 32.382812 -16.988281 L 32.382812 -21.234375 Z M 16.191406 -16.988281 L 16.191406 0 L 20.4375 0 L 20.4375 -16.988281 Z M 32.382812 -16.988281 L 32.382812 0 L 36.628906 0 L 36.628906 -16.988281 Z M 32.382812 -16.988281 "/></g></g></g><g fill="#d8dfe3" fill-opacity="1"><g transform="translate(289.812385, 312.686406)"><g><path d="M 0 0 L 4.246094 0 L 5.242188 -8.492188 L 0.996094 -8.492188 Z M 25.480469 0 L 29.730469 0 L 28.734375 -8.492188 L 24.488281 -8.492188 Z M 5.242188 -8.492188 L 24.488281 -8.492188 L 24.488281 -12.742188 L 5.242188 -12.742188 Z M 0.996094 -12.742188 L 5.242188 -12.742188 L 4.246094 -21.234375 L 0 -21.234375 Z M 24.488281 -12.742188 L 28.734375 -12.742188 L 29.730469 -21.234375 L 25.480469 -21.234375 Z M 24.488281 -12.742188 "/></g></g></g></svg>